<svg width="22" height="22" viewBox="0 0 22 22" fill="none" xmlns="http://www.w3.org/2000/svg">
<path d="M9.16602 14.666C9.62435 14.941 10.266 15.1243 10.9993 15.1243C11.7327 15.1243 12.3743 14.941 12.8327 14.666" stroke="white" stroke-width="1.83333" stroke-linecap="round" stroke-linejoin="round"/>
<path d="M13.75 11H13.76" stroke="white" stroke-width="1.83333" stroke-linecap="round" stroke-linejoin="round"/>
<path d="M17.7643 6.24525C18.407 7.1797 18.8501 8.23661 19.066 9.35C19.3759 9.50012 19.6373 9.73452 19.8203 10.0263C20.0032 10.3182 20.1002 10.6556 20.1002 11C20.1002 11.3444 20.0032 11.6818 19.8203 11.9737C19.6373 12.2655 19.3759 12.4999 19.066 12.65C18.6702 14.4957 17.6535 16.1499 16.1855 17.3365C14.7175 18.5231 12.8869 19.1704 10.9993 19.1704C9.11167 19.1704 7.28112 18.5231 5.81309 17.3365C4.34507 16.1499 3.32837 14.4957 2.93264 12.65C2.62268 12.4999 2.36127 12.2655 2.17836 11.9737C1.99545 11.6818 1.89844 11.3444 1.89844 11C1.89844 10.6556 1.99545 10.3182 2.17836 10.0263C2.36127 9.73452 2.62268 9.50012 2.93264 9.35C3.31238 7.48963 4.32221 5.81718 5.79175 4.61484C7.26129 3.41249 9.10058 2.75383 10.9993 2.75C12.8326 2.75 14.2076 3.75833 14.2076 5.04167C14.2076 6.325 13.3826 7.33333 12.3743 7.33333C11.641 7.33333 10.9993 6.96667 10.9993 6.41667" stroke="white" stroke-width="1.83333" stroke-linecap="round" stroke-linejoin="round"/>
<path d="M8.25 11H8.26" stroke="white" stroke-width="1.83333" stroke-linecap="round" stroke-linejoin="round"/>
</svg>
