<svg width="28" height="28" viewBox="0 0 28 28" fill="none" xmlns="http://www.w3.org/2000/svg">
<path d="M2.33325 14.0001C2.33325 9.60031 2.33325 7.40042 3.70009 6.03358C5.06692 4.66675 7.26681 4.66675 11.6666 4.66675H16.3333C20.733 4.66675 22.9329 4.66675 24.2997 6.03358C25.6666 7.40042 25.6666 9.60031 25.6666 14.0001V16.3334C25.6666 20.7332 25.6666 22.9331 24.2997 24.2999C22.9329 25.6667 20.733 25.6667 16.3333 25.6667H11.6666C7.26681 25.6667 5.06692 25.6667 3.70009 24.2999C2.33325 22.9331 2.33325 20.7332 2.33325 16.3334V14.0001Z" stroke="#9D42E8" stroke-width="1.5"/>
<path d="M8.16675 4.66675V2.91675" stroke="#9D42E8" stroke-width="1.5" stroke-linecap="round"/>
<path d="M19.8333 4.66675V2.91675" stroke="#9D42E8" stroke-width="1.5" stroke-linecap="round"/>
<path d="M2.91675 10.5H25.0834" stroke="#9D42E8" stroke-width="1.5" stroke-linecap="round"/>
</svg>
