<svg width="24" height="24" viewBox="0 0 24 24" fill="none" xmlns="http://www.w3.org/2000/svg">
<path d="M18.1001 12.0001H17.2987C16.469 12.0001 16.0542 12.0001 15.7103 12.1948C15.3665 12.3895 15.153 12.7452 14.7262 13.4567L14.6953 13.5081C14.2977 14.1708 14.0988 14.5022 13.8096 14.4968C13.5203 14.4913 13.334 14.1527 12.9616 13.4755L11.2743 10.4077C10.927 9.7763 10.7534 9.46058 10.476 9.44561C10.1987 9.43064 9.9921 9.72582 9.57884 10.3162L9.29583 10.7205C8.8569 11.3475 8.63744 11.661 8.31183 11.8306C7.98622 12.0001 7.60352 12.0001 6.83813 12.0001H6.1001" stroke="#999EA7" stroke-width="1.5" stroke-linecap="round"/>
<path d="M9.06183 19.3707L9.53581 18.7895L9.53581 18.7895L9.06183 19.3707ZM12.1001 5.49877L11.551 6.00966C11.6929 6.16215 11.8918 6.24877 12.1001 6.24877C12.3084 6.24877 12.5073 6.16215 12.6492 6.00966L12.1001 5.49877ZM15.1384 19.3707L15.6124 19.952L15.1384 19.3707ZM9.06183 19.3707L9.53581 18.7895C8.08594 17.6072 6.39303 16.0568 5.0689 14.3598C3.73055 12.6445 2.8501 10.8821 2.8501 9.26044H2.1001H1.3501C1.3501 11.3862 2.47936 13.4793 3.8863 15.2825C5.30746 17.1039 7.09541 18.7349 8.58785 19.952L9.06183 19.3707ZM2.1001 9.26044H2.8501C2.8501 6.53057 4.108 4.70454 5.70074 4.04191C7.27306 3.38778 9.45295 3.75479 11.551 6.00966L12.1001 5.49877L12.6492 4.98787C10.2474 2.40661 7.42729 1.69899 5.12457 2.65699C2.84227 3.60649 1.3501 6.07936 1.3501 9.26044H2.1001ZM15.1384 19.3707L15.6124 19.952C17.1048 18.735 18.8927 17.1039 20.3139 15.2825C21.7208 13.4794 22.8501 11.3862 22.8501 9.2604H22.1001H21.3501C21.3501 10.8821 20.4696 12.6445 19.1313 14.3598C17.8072 16.0568 16.1143 17.6072 14.6644 18.7895L15.1384 19.3707ZM22.1001 9.2604H22.8501C22.8501 6.07926 21.3579 3.60639 19.0756 2.65691C16.7729 1.69894 13.9528 2.40662 11.551 4.98787L12.1001 5.49877L12.6492 6.00966C14.7473 3.75479 16.9271 3.38774 18.4995 4.04184C20.0922 4.70444 21.3501 6.53045 21.3501 9.2604H22.1001ZM9.06183 19.3707L8.58785 19.952C9.8588 20.9884 10.7411 21.75 12.1001 21.75L12.1001 21L12.1001 20.25C11.3786 20.25 10.9288 19.9254 9.53581 18.7895L9.06183 19.3707ZM15.1384 19.3707L14.6644 18.7895C13.2714 19.9254 12.8217 20.25 12.1001 20.25L12.1001 21L12.1001 21.75C13.4591 21.75 14.3414 20.9884 15.6124 19.952L15.1384 19.3707Z" fill="#999EA7"/>
</svg>
