<svg width="30" height="30" viewBox="0 0 30 30" fill="none" xmlns="http://www.w3.org/2000/svg">
<path d="M13.75 11.875C13.75 10.4354 13.2008 8.99587 12.1025 7.89752C9.90578 5.70083 6.34422 5.70083 4.14752 7.89752C3.04917 8.99587 2.5 10.4354 2.5 11.875M13.75 11.875C13.75 13.3146 13.2008 14.7541 12.1025 15.8525C9.90578 18.0492 6.34422 18.0492 4.14752 15.8525C3.04917 14.7541 2.5 13.3146 2.5 11.875M13.75 11.875H2.5" stroke="white" stroke-width="1.5" stroke-linecap="round"/>
<path d="M18.4467 8.9019C19.9112 10.3664 22.2855 10.3664 23.75 8.9019C24.4822 8.16966 24.8483 7.20995 24.8483 6.25024C24.8483 5.29054 24.4822 4.33083 23.75 3.59859C22.2855 2.13413 19.9112 2.13413 18.4467 3.59859C17.7145 4.33083 17.3483 5.29054 17.3483 6.25024C17.3483 7.20995 17.7145 8.16966 18.4467 8.9019Z" stroke="white" stroke-width="1.5" stroke-linecap="round"/>
<path d="M26.1315 21.7263C27.9562 19.9016 27.9562 16.9432 26.1315 15.1185C24.3068 13.2938 21.3484 13.2938 19.5237 15.1185L15.1185 19.5237C13.2938 21.3484 13.2938 24.3068 15.1185 26.1315C16.9432 27.9562 19.9016 27.9562 21.7263 26.1315L26.1315 21.7263Z" stroke="white" stroke-width="1.5"/>
<path d="M17.5 17.5C17.5 17.5 17.8517 19.3244 19.8888 21.3615C21.9259 23.3986 23.75 23.75 23.75 23.75" stroke="white" stroke-width="1.5"/>
</svg>
