<svg width="40" height="40" viewBox="0 0 40 40" fill="none" xmlns="http://www.w3.org/2000/svg">
<path d="M17.6275 14.5071C18.683 12.6135 19.2108 11.6667 19.9998 11.6667C20.7889 11.6667 21.3167 12.6135 22.3722 14.5071L22.6453 14.9969C22.9452 15.535 23.0952 15.8041 23.3291 15.9816C23.5629 16.1591 23.8541 16.225 24.4366 16.3568L24.9669 16.4768C27.0166 16.9405 28.0415 17.1724 28.2853 17.9565C28.5292 18.7406 27.8305 19.5576 26.4331 21.1917L26.0716 21.6144C25.6745 22.0788 25.4759 22.3109 25.3866 22.5982C25.2973 22.8854 25.3273 23.1952 25.3874 23.8147L25.442 24.3787C25.6533 26.5589 25.7589 27.649 25.1205 28.1336C24.4822 28.6182 23.5226 28.1764 21.6034 27.2927L21.1069 27.0641C20.5616 26.813 20.2889 26.6875 19.9998 26.6875C19.7108 26.6875 19.4381 26.813 18.8927 27.0641L18.3962 27.2927C16.4771 28.1764 15.5175 28.6182 14.8791 28.1336C14.2408 27.649 14.3464 26.5589 14.5577 24.3787L14.6123 23.8147C14.6724 23.1952 14.7024 22.8854 14.6131 22.5982C14.5237 22.3109 14.3252 22.0788 13.9281 21.6144L13.5666 21.1917C12.1692 19.5576 11.4705 18.7406 11.7144 17.9565C11.9582 17.1724 12.9831 16.9405 15.0328 16.4768L15.5631 16.3568C16.1455 16.225 16.4368 16.1591 16.6706 15.9816C16.9045 15.8041 17.0544 15.535 17.3544 14.9969L17.6275 14.5071Z" stroke="white" stroke-width="2.5"/>
<path d="M20 3.33325V6.66659" stroke="white" stroke-width="2.5" stroke-linecap="round"/>
<path d="M20 33.3333V36.6666" stroke="white" stroke-width="2.5" stroke-linecap="round"/>
<path d="M3.3335 20L6.66683 20" stroke="white" stroke-width="2.5" stroke-linecap="round"/>
<path d="M33.3335 20L36.6668 20" stroke="white" stroke-width="2.5" stroke-linecap="round"/>
<path d="M10 29.9998L10.5717 29.428" stroke="white" stroke-width="2.5" stroke-linecap="round"/>
<path d="M29.4282 10.572L30.0003 9.99992" stroke="white" stroke-width="2.5" stroke-linecap="round"/>
<path d="M30 30.0002L29.4283 29.4285" stroke="white" stroke-width="2.5" stroke-linecap="round"/>
<path d="M10.5723 10.572L10.0002 9.99992" stroke="white" stroke-width="2.5" stroke-linecap="round"/>
</svg>
