<svg width="35" height="35" viewBox="0 0 35 35" fill="none" xmlns="http://www.w3.org/2000/svg">
<path d="M13.125 20.7598V24.7916C13.125 28.8187 16.3896 32.0833 20.4167 32.0833H21.7034C24.4549 32.0833 26.7742 30.2327 27.4845 27.7083" stroke="#B077E5" stroke-width="2.5"/>
<path d="M7.91675 4.375H7.78306C7.32681 4.375 7.09869 4.375 6.90638 4.39201C4.79454 4.57875 3.1205 6.25279 2.93375 8.36463C2.91675 8.55694 2.91675 8.78506 2.91675 9.24131V10.5515C2.91675 16.1894 7.48718 20.7598 13.1251 20.7598C18.5329 20.7598 22.9168 16.3759 22.9168 10.9681V9.24131C22.9168 8.78506 22.9168 8.55694 22.8997 8.36463C22.713 6.25279 21.039 4.57875 18.9271 4.39201C18.7348 4.375 18.5067 4.375 18.0504 4.375H17.9167" stroke="#B077E5" stroke-width="2.5" stroke-linecap="round"/>
<ellipse cx="27.7083" cy="23.3333" rx="4.375" ry="4.375" stroke="#B077E5" stroke-width="2.5"/>
<path d="M17.5 2.91675V5.83341" stroke="#B077E5" stroke-width="2.5" stroke-linecap="round"/>
<path d="M8.75 2.91675V5.83341" stroke="#B077E5" stroke-width="2.5" stroke-linecap="round"/>
</svg>
