<svg width="24" height="24" viewBox="0 0 24 24" fill="none" xmlns="http://www.w3.org/2000/svg">
<g clip-path="url(#clip0_134_31379)">
<path d="M4.7002 15.4999H6.09464C6.88059 15.4999 7.27357 15.4999 7.60521 15.6774C7.93685 15.8549 8.15483 16.1819 8.59079 16.8358L8.75059 17.0755C9.17325 17.7095 9.38458 18.0265 9.67106 18.0095C9.95755 17.9925 10.1299 17.6527 10.4745 16.9731L12.4405 13.0964C12.7989 12.3898 12.9781 12.0365 13.2713 12.0247C13.5644 12.0129 13.7713 12.3508 14.1852 13.0264L14.8224 14.0668C15.2514 14.7671 15.4658 15.1172 15.8074 15.3086C16.1489 15.4999 16.5595 15.4999 17.3807 15.4999H18.7002" stroke="#999EA7" stroke-width="1.5" stroke-linecap="round"/>
<path d="M1.7002 12.5C1.7002 7.78595 1.7002 5.42893 3.16466 3.96447C4.62913 2.5 6.98615 2.5 11.7002 2.5C16.4142 2.5 18.7713 2.5 20.2357 3.96447C21.7002 5.42893 21.7002 7.78595 21.7002 12.5C21.7002 17.214 21.7002 19.5711 20.2357 21.0355C18.7713 22.5 16.4142 22.5 11.7002 22.5C6.98615 22.5 4.62913 22.5 3.16466 21.0355C1.7002 19.5711 1.7002 17.214 1.7002 12.5Z" stroke="#999EA7" stroke-width="1.5"/>
</g>
<defs>
<clipPath id="clip0_134_31379">
<rect width="24" height="24" fill="white"/>
</clipPath>
</defs>
</svg>
